<svg width="38" height="30" viewBox="0 0 38 30" fill="none" xmlns="http://www.w3.org/2000/svg">
<path d="M37.9151 3.27808C37.0269 4.17544 35.7959 4.73007 34.4323 4.73007C34.2591 4.73007 34.086 4.72086 33.9183 4.70243C35.3409 3.84929 36.4391 2.51339 36.9863 0.919514C36.9863 0.919514 36.9881 0.919514 36.9881 0.917671C37.0637 0.703926 37.1282 0.488339 37.1798 0.265381C36.0539 1.46862 34.5153 2.28306 32.7887 2.47653C32.5233 2.50786 32.2543 2.5226 31.9816 2.5226C31.895 2.5226 31.812 2.52076 31.7291 2.51523C31.145 1.90163 30.4485 1.39491 29.6764 1.0227C28.8159 0.602582 27.854 0.35567 26.8386 0.324345C26.7557 0.318817 26.6729 0.316974 26.5863 0.316974C25.7257 0.316974 24.9002 0.469912 24.1373 0.751834C23.942 0.823697 23.7522 0.901088 23.5661 0.991377C21.1485 2.12459 19.4753 4.58082 19.4753 7.42768C19.4753 8.01179 19.5472 8.57932 19.678 9.12105C18.9372 9.09157 18.2039 9.01971 17.4852 8.91283C17.2549 8.87598 17.0245 8.83729 16.796 8.79306C14.9626 8.45218 13.2139 7.86622 11.5886 7.07021C10.1348 6.35895 8.77857 5.48186 7.54581 4.46105C6.50838 3.60607 5.55942 2.65158 4.71179 1.60866C4.67493 1.56443 4.63802 1.51837 4.60301 1.47415C4.55326 1.54969 4.50724 1.62524 4.4667 1.70447C3.87335 2.74187 3.53798 3.94142 3.53798 5.22021C3.53798 5.2589 3.53793 5.30128 3.53978 5.33998C3.55452 6.29814 3.75719 7.21024 4.1202 8.03943C4.27499 8.40795 4.46299 8.75621 4.67859 9.08604C5.31431 10.0645 6.18216 10.8789 7.2067 11.4428C7.25276 11.4722 7.30068 11.4962 7.34859 11.5183C7.27488 11.533 7.19938 11.5459 7.12383 11.5533C6.91376 11.581 6.69633 11.5957 6.47889 11.5957C5.38802 11.5957 4.37272 11.2548 3.54167 10.6744C3.53614 10.7352 3.53609 10.7978 3.53609 10.8605C3.53609 12.8911 4.38741 14.7226 5.751 16.0143C6.81238 17.0278 8.18522 17.7077 9.71096 17.9067C9.16184 18.1075 8.56845 18.2163 7.95115 18.2163C7.28225 18.2163 6.64099 18.0891 6.05502 17.8551C6.92845 20.6946 9.53224 22.7768 12.6353 22.8689C10.7392 24.8387 8.07644 26.0622 5.12999 26.0622C3.29836 26.0622 1.57732 25.5886 0.0847473 24.7594C3.67245 27.8643 8.351 29.7401 13.4681 29.7401C24.7767 29.7401 33.9422 20.5748 33.9422 9.26662C33.9422 8.64381 33.9146 8.02837 33.8593 7.42031C35.7296 6.68141 37.213 5.1723 37.9151 3.27992V3.27808Z" fill="black"/>
</svg>
